<svg width="173" height="35" viewBox="0 0 173 35" fill="none" xmlns="http://www.w3.org/2000/svg">
<path fill-rule="evenodd" clip-rule="evenodd" d="M162.25 7.7003C162.25 7.01437 161.69 6.45831 161 6.45831C160.31 6.45831 159.75 7.01437 159.75 7.7003V8.63179H159.053C156.272 8.63179 153.97 10.7804 153.796 13.5385L153.52 17.927C153.415 19.6002 152.849 21.2127 151.885 22.5887C151.015 23.832 151.79 25.5491 153.304 25.7296L157.562 26.2374V27.572C157.562 29.4584 159.102 30.9875 161 30.9875C162.898 30.9875 164.437 29.4584 164.437 27.572V26.2374L168.696 25.7296C170.21 25.5491 170.985 23.832 170.114 22.5887C169.151 21.2127 168.585 19.6002 168.48 17.927L168.204 13.5385C168.03 10.7804 165.728 8.63179 162.947 8.63179H162.25V7.7003ZM159.053 10.4948C157.262 10.4948 155.779 11.8785 155.668 13.6548L155.391 18.0433C155.265 20.0568 154.584 21.997 153.424 23.6529C153.362 23.7427 153.418 23.8668 153.527 23.8799L158.199 24.4369C160.06 24.6588 161.94 24.6588 163.801 24.4369L168.473 23.8799C168.582 23.8668 168.638 23.7427 168.575 23.6529C167.416 21.997 166.735 20.0568 166.609 18.0433L166.332 13.6548C166.221 11.8785 164.738 10.4948 162.947 10.4948H159.053ZM161 29.1245C160.137 29.1245 159.437 28.4295 159.437 27.572V26.6406H162.562V27.572C162.562 28.4295 161.863 29.1245 161 29.1245Z" fill="#4F5665"/>
<circle cx="168" cy="11" r="4.75" fill="#FF5E3A" stroke="#4F5665" stroke-width="0.5"/>
<path fill-rule="evenodd" clip-rule="evenodd" d="M79.6875 13.2892C79.6875 10.374 82.066 8.01077 85 8.01077C87.934 8.01077 90.3125 10.374 90.3125 13.2892C90.3125 16.2044 87.934 18.5676 85 18.5676C82.066 18.5676 79.6875 16.2044 79.6875 13.2892ZM85 9.87375C83.1015 9.87375 81.5625 11.4029 81.5625 13.2892C81.5625 15.1755 83.1015 16.7047 85 16.7047C86.8985 16.7047 88.4375 15.1755 88.4375 13.2892C88.4375 11.4029 86.8985 9.87375 85 9.87375Z" fill="#4F5665"/>
<path fill-rule="evenodd" clip-rule="evenodd" d="M80 22.2936C78.4467 22.2936 77.1875 23.5447 77.1875 25.0881V26.5639C77.1875 26.5864 77.2039 26.6055 77.2262 26.6091C82.3747 27.4443 87.6253 27.4443 92.7738 26.6091C92.7961 26.6055 92.8125 26.5864 92.8125 26.5639V25.0881C92.8125 23.5447 91.5533 22.2936 90 22.2936H89.5739C89.541 22.2936 89.5082 22.2988 89.4769 22.3089L88.395 22.6599C86.189 23.3757 83.811 23.3757 81.605 22.6599L80.5231 22.3089C80.4918 22.2988 80.459 22.2936 80.4261 22.2936H80ZM75.3125 25.0881C75.3125 22.5158 77.4112 20.4306 80 20.4306H80.4261C80.6567 20.4306 80.8859 20.4668 81.1051 20.538L82.187 20.889C84.0148 21.482 85.9852 21.482 87.813 20.889L88.8949 20.538C89.1141 20.4668 89.3433 20.4306 89.5739 20.4306H90C92.5888 20.4306 94.6875 22.5158 94.6875 25.0881V26.5639C94.6875 27.4994 94.0051 28.297 93.0759 28.4478C87.7274 29.3154 82.2726 29.3154 76.9241 28.4478C75.9949 28.297 75.3125 27.4994 75.3125 26.5639V25.0881Z" fill="#4F5665"/>
<rect y="4.96793" width="30" height="29.8076" fill="#F4F4F4"/>
<path fill-rule="evenodd" clip-rule="evenodd" d="M17.9813 24.1513C14.6685 26.7876 9.81921 26.5801 6.74823 23.5288C3.45318 20.2549 3.45318 14.9468 6.74823 11.6729C10.0433 8.39899 15.3856 8.39899 18.6807 11.6729C21.7516 14.7242 21.9605 19.5424 19.3072 22.834L25.7517 29.2372C26.1178 29.6009 26.1178 30.1907 25.7517 30.5545C25.3856 30.9183 24.792 30.9183 24.4259 30.5545L17.9813 24.1513ZM8.07406 22.2115C5.51124 19.6651 5.51124 15.5366 8.07406 12.9902C10.6369 10.4438 14.792 10.4438 17.3548 12.9902C19.9158 15.5347 19.9176 19.659 17.3605 22.2059C17.3586 22.2077 17.3567 22.2096 17.3548 22.2115C17.3529 22.2133 17.3511 22.2152 17.3492 22.2171C14.7859 24.7579 10.635 24.756 8.07406 22.2115Z" fill="#4F5665"/>
</svg>
